<?xml version="1.0" encoding="utf-8"?>
<svg version="1.1" id="VTFK" 
  xmlns="http://www.w3.org/2000/svg" 
  xmlns:xlink="http://www.w3.org/1999/xlink" x="0px" y="0px" viewBox="0 0 2683.4 647.5" style="enable-background:new 0 0 2683.4 647.5;" xml:space="preserve">
  <title>Vestfold og Telemark fylkeskommune</title>
  <style type="text/css">
    .st0{fill:#E40017;}
    .st1{fill:#FFCD00;}
    .st2{fill:#FFFFFF;}
  </style>
  <path class="st0" d="M122.3,118.6v227.8c0,6,0.3,15.3,0.9,21.2c9,90.6,85.6,161.4,178.9,161.4S472,458.2,481,367.6
	c0.6-5.9,0.9-15.2,0.9-21.2V118.6H122.3z"/>
  <path class="st1" d="M306.9,416.5c0-0.1,0-0.2,0.1-0.2c0,0,0,0,0,0c0.1,0,0.2,0,0.2,0.1c5.7,17.8,16.2,34.3,29.3,48.5
	c5.4-2.2,11.2-4.2,17-6.5c-22.2-19.4-41.1-45.2-46.7-75.1c0-0.1,0-0.2,0.1-0.2c0,0,0,0,0,0c0.1,0,0.2,0,0.2,0.1
	c9.1,28.5,30.5,53.5,55.1,71.7c6.9-2.8,13.4-6.3,19.5-10.5c-32.7-19.6-67.2-53.5-75-95.7c0-0.1,0-0.2,0.1-0.2c0.1,0,0.2,0,0.2,0.1
	c12.4,39,47.9,71.3,83,88.9c5.4-5.2,9.7-11.3,12.9-18c-37.4-15.7-86.7-55-96.2-106.5c0-0.1,0-0.2,0.1-0.2c0.1,0,0.2,0,0.2,0.1
	c14.4,45.3,59.9,81.5,99.7,96.3c2.4-8.2,3.8-17.9,3.8-29.3c-48.1-14.7-103.9-71.2-103.9-128.1l0,0v-35.5h-9.6v35.5
	c0,55.8-59.6,114.6-103.8,128.1c0,11.4,1.4,21.1,3.8,29.3c39.8-14.8,85.3-51,99.7-96.3c0-0.1,0.1-0.1,0.2-0.1c0.1,0,0.2,0.1,0.1,0.2
	c-9.5,51.5-58.8,90.8-96.2,106.5c3.1,6.8,7.5,12.9,12.9,18c35.1-17.6,70.6-49.9,83-88.9c0-0.1,0.1-0.1,0.2-0.1
	c0.1,0,0.2,0.1,0.1,0.2c-7.8,42.2-42.2,76.1-75,95.7c6.1,4.2,12.7,7.7,19.5,10.5c24.6-18.2,46-43.2,55.1-71.7c0-0.1,0.1-0.1,0.2-0.1
	c0.1,0,0.2,0.1,0.1,0.2c0,0,0,0,0,0c-5.5,29.9-24.4,55.7-46.7,75.1c5.9,2.2,11.7,4.3,17,6.5c13.1-14.3,23.6-30.7,29.3-48.5
	c0-0.1,0.1-0.1,0.2-0.1c0.1,0,0.2,0.1,0.1,0.2c0,0,0,0,0,0c-3.5,18.8-12.2,36-23.8,51c13.8,6.4,23.8,14.9,23.8,32.2l0,0h9.5l0,0
	c0-17.3,10-25.7,23.8-32.2C319.1,452.5,310.4,435.3,306.9,416.5z"/>
  <ellipse transform="matrix(1.999600e-02 -0.9998 0.9998 1.999600e-02 180.4763 638.1929)" class="st1" cx="415.8" cy="227" rx="10.5" ry="10.6"/>
  <path class="st1" d="M448.3,281.2c-16.5,39.4-87.7,40.3-100.3-5.3c6.5,11.2,18.7,20.1,37.1,20.4c36.5,0.6,66.7-29.3,67.3-66.8
	c0-1.8,0-3.5-0.1-5.3c-0.1-1.6-0.2-3.1-0.4-4.7c-0.6-4.7-1.6-9.3-3.2-13.7c-4-13.4-9.6-27-7.6-41.6c4.3,1.7,9.1-0.5,10.8-4.7
	c1.7-4.3-0.5-9.1-4.7-10.8c-0.9-0.4-1.9-0.6-2.9-0.6c-4.4-0.1-8.2,2.3-10.7,7.5c-3.7,7.6-1.1,18.9,1.8,27.2
	c-11.9-13.5-23-22.4-47.8-22.4c-20.4,0-58.7,6.2-66.9-15.4c-2.4,3.9-3.7,8.3-3.8,12.8c-0.5,18.2,20.6,20.8,21.7,20.5
	c-24.5,23.6,4.9,56,28.8,37c2.1-1.7,4.6-4.4,5.3-7c-8.4,3-17.6-1.4-20.6-9.8c-0.9-2.6-1.2-5.4-0.7-8.1c2.8-13.3,16.7-22.7,40.3-22.6
	c-26.4,5.4-24,29.6-17.9,31.2c0,0-0.2-1.4-0.1-2c0.2-10.2,11.1-20,27-20c18.9,0,30.8,14.6,35.1,22.5c-12.5-9.4-30.3-7-39.7,5.5
	c-3.6,4.8-5.6,10.6-5.7,16.6c-0.1,5.6,2.7,15.7,12.8,17c-11.7-15.7-1-29.9,11.9-30.1c13.5-0.2,23.6,11.4,23.6,24.8
	c0,21.6-22.3,36.6-45.5,36.6c-9.8,0-19.8-3-26.2-8.4c6.6-2,11.2-8,11.3-14.9c0.2-8.7-6.8-16.1-15.5-16.1
	c-19.4,0-23.9,20.4-23.9,30.4c0,74.6,102.7,83.6,96.5,115.3c4.8-2.8,6.1-9.5,5.8-14.2c-1.2-16.2-30-31.9-36.2-36.1
	C412.3,328.7,458.4,316.9,448.3,281.2z"/>
  <path class="st1" d="M159,148.1c13.6-1.2,18.1,20.4-0.8,35.8c-1.1,1-2.6,1.6-4.1,1.7c2.9-2.2,8.9-13.5,7.5-21.5
	c-5.5,0.8-8.8-2.1-9.8-6.1C150.7,153.2,154.3,148.5,159,148.1z"/>
  <path class="st1" d="M287.4,157.8c-0.1-4.5-1.4-8.9-3.7-12.8c-8.2,21.5-46.5,15.4-66.8,15.4c-38.5,0-65.6,31.6-64.9,69.1
	s30.8,67.4,67.3,66.7c17.6-0.3,29.5-8.4,36.2-18.9l0,0c-11.4,41.8-80.8,44-98.5,3.9c-7.2,6.5-4.5,19.2,2.4,22.5
	c-3.7,16.2,23.1,26.4,37.4,21.2c-10.1,5.1-43.8,31.4-27.6,51.4c-6.3-32.2,96.6-40.7,96.6-113.7c0-6.9-2.3-32-24-32
	c-8.7,0-15.7,7.3-15.5,16.1c0.1,6.9,4.7,12.9,11.3,14.9c-6.4,5.7-16.5,8.4-26.2,8.4c-16.6,0-47-9.1-47-38.9
	c0-12.9,10.1-23.6,23-23.9c6.9-0.1,13.4,2.8,17.9,7.9c-5.2-3.7-12.5-2.5-16.2,2.7c-3.7,5.2-2.5,12.5,2.7,16.2c2,1.5,4.5,2.2,7,2.2
	c10.5-0.2,11.7-11.5,11.8-10.9c2.7-14.8-7.1-29-21.9-31.7c-1.8-0.3-3.6-0.5-5.4-0.4c-4.5,0.1-8.9,1.3-12.8,3.5
	c11.7-18,27.1-19.4,33.3-19.5c15.8-0.3,26.8,9.8,27,20c0,0.9-0.1,1.8-0.3,2.7c7.3-4.2,6.3-27.3-17.7-31.7
	c21.4-0.5,37.4,8.7,40.3,22.4c0.2,0.9,0.2,1.8,0.2,2.7c0,8.9-7.2,16.1-16.1,16.1c-1.8,0-3.7-0.3-5.4-0.9c0.7,2.5,3.2,5.3,5.3,7
	c23.8,19,53.2-13.5,28.8-37C266.8,178.6,287.9,176,287.4,157.8z"/>
  <path class="st2" d="M600.7,299.5l-26.8-87.8l-0.1-0.5c0-0.9,0.5-1.3,1.4-1.3h16.4c0.8-0.1,1.6,0.5,1.8,1.3l17.3,63.4
	c0.1,0.3,0.2,0.4,0.4,0.4s0.3-0.1,0.4-0.4l17-63.4c0.2-0.8,1-1.4,1.8-1.3h16c0.5,0,0.9,0.2,1.2,0.5c0.3,0.4,0.3,0.9,0.1,1.3
	l-27.2,87.8c-0.2,0.8-0.9,1.3-1.7,1.3h-16.4C601.6,300.9,600.8,300.3,600.7,299.5z"/>
  <path class="st2" d="M712,271.6c0,0.8-0.6,1.5-1.5,1.6c-0.1,0-0.2,0-0.2,0h-40.2c-0.5,0-0.7,0.2-0.5,0.6c0.3,1.8,0.8,3.5,1.4,5.2
	c2.3,4.8,6.8,7.3,13.8,7.3c5.2,0.1,10.1-2.5,13.1-6.8c0.2-0.4,0.7-0.7,1.2-0.8c0.4,0.1,0.7,0.2,0.9,0.5l9.4,9.2
	c0.4,0.3,0.6,0.7,0.6,1.2c-0.1,0.4-0.3,0.7-0.5,1c-2.9,3.6-6.7,6.4-11,8.2c-4.7,2-9.7,3-14.8,2.9c-7.4,0-13.7-1.7-18.9-5.1
	c-5.1-3.4-9-8.3-11.1-14.1c-1.8-4.3-2.7-10-2.7-17c-0.1-4.3,0.6-8.5,2-12.6c1.8-5.9,5.5-11,10.5-14.7c5-3.6,10.9-5.5,17.7-5.5
	c8.7,0,15.6,2.5,20.9,7.5c5.2,5,8.4,11.7,9.6,20.1C712,264.2,712.2,267.9,712,271.6z M670.4,256.4c-0.4,1.4-0.7,2.8-0.9,4.2
	c0,0.3,0.2,0.6,0.5,0.6c0,0,0.1,0,0.1,0h22.5c0.5,0,0.7-0.2,0.5-0.6c-0.4-2.5-0.6-3.7-0.6-3.6c-0.7-2.4-2.1-4.5-4.1-6
	c-2.1-1.5-4.6-2.2-7.2-2.1C675.8,248.7,672.2,251.3,670.4,256.4L670.4,256.4z"/>
  <path class="st2" d="M735.7,299.3c-4.3-1.6-7.7-3.9-10.1-6.9c-2.3-2.8-3.6-6.4-3.6-10v-1.3c0-0.4,0.2-0.8,0.5-1.1
	c0.3-0.3,0.7-0.5,1.1-0.5h14.4c0.4,0,0.8,0.2,1.1,0.5c0.3,0.3,0.5,0.7,0.4,1.1v0.1c0,1.9,1.1,3.5,3.2,4.9c2.1,1.3,4.8,2,8,2
	c3,0,5.3-0.6,7.1-1.8c1.8-1.2,2.7-2.6,2.7-4.4c0-1.5-0.9-2.9-2.3-3.5c-2.5-1.1-5-1.9-7.7-2.5c-3.3-0.8-6.5-1.8-9.6-3
	c-5.5-1.9-10-4.2-13.3-7c-3.3-2.8-4.9-6.8-4.9-12c0-6.4,2.5-11.5,7.5-15.3c5-3.8,11.6-5.6,19.8-5.7c5.5,0,10.4,0.9,14.6,2.7
	c3.9,1.5,7.2,4.1,9.7,7.5c2.3,3.2,3.5,7,3.4,10.9c0,0.4-0.2,0.8-0.5,1.1c-0.3,0.3-0.7,0.5-1.1,0.5h-13.9c-0.4,0-0.8-0.2-1.1-0.5
	c-0.3-0.3-0.5-0.7-0.4-1.1c0-1.9-1-3.5-2.9-4.8c-2-1.3-4.5-2-7.7-2c-2.4-0.1-4.9,0.4-7,1.6c-1.8,1-2.7,2.5-2.7,4.3
	c0,1.7,0.9,3,2.7,3.9c1.8,0.9,4.7,1.8,8.9,2.7c1,0.3,2,0.5,3.2,0.8c1.2,0.3,2.5,0.7,3.9,1.1c6.2,1.8,11,4.2,14.6,7
	c3.6,2.9,5.3,7,5.3,12.5c0,6.4-2.5,11.4-7.6,15c-5.1,3.6-11.9,5.4-20.5,5.4C745.1,301.8,740.1,300.9,735.7,299.3z"/>
  <path class="st2" d="M829.2,248.3c-0.3,0.3-0.7,0.5-1.1,0.5h-12.5c-0.3,0-0.6,0.2-0.6,0.5c0,0,0,0.1,0,0.1V277c0,2.9,0.6,5,1.8,6.3
	c1.2,1.4,3.1,2.1,5.7,2.1h4.3c0.9,0,1.6,0.7,1.6,1.5c0,0,0,0,0,0v12.3c0,0.9-0.6,1.6-1.5,1.7c0,0,0,0,0,0c-3.6,0.2-6.2,0.3-7.8,0.3
	c-7.2,0-12.6-1.2-16.1-3.6c-3.6-2.4-5.4-6.9-5.5-13.4v-34.8c0-0.3-0.2-0.6-0.5-0.6c0,0-0.1,0-0.1,0h-7.4c-0.4,0-0.8-0.2-1.1-0.5
	c-0.3-0.3-0.5-0.7-0.5-1.1v-11.6c0-0.9,0.7-1.6,1.5-1.6c0,0,0,0,0,0h7.4c0.3,0,0.6-0.2,0.6-0.5c0,0,0-0.1,0-0.1v-15.5
	c0-0.9,0.7-1.6,1.5-1.6c0,0,0,0,0,0h14.6c0.8,0,1.5,0.7,1.6,1.5c0,0,0,0,0,0.1v15.5c0,0.3,0.2,0.6,0.5,0.6c0,0,0.1,0,0.1,0h12.5
	c0.9,0,1.6,0.7,1.6,1.5c0,0,0,0,0,0v11.6C829.7,247.6,829.6,248,829.2,248.3z"/>
  <path class="st2" d="M882.2,234.4c0.3,0.3,0.5,0.7,0.4,1.1v12.3c0,0.9-0.7,1.6-1.5,1.6c0,0,0,0,0,0h-12.6c-0.3,0-0.6,0.2-0.6,0.5
	c0,0,0,0.1,0,0.1v49.2c0,0.9-0.7,1.6-1.5,1.6c0,0,0,0,0,0h-15.2c-0.4,0-0.8-0.2-1.1-0.5c-0.3-0.3-0.5-0.7-0.5-1.1V250
	c0-0.3-0.2-0.6-0.5-0.6c0,0-0.1,0-0.1,0h-7.7c-0.4,0-0.8-0.2-1.1-0.5c-0.3-0.3-0.5-0.7-0.5-1.1v-12.3c0-0.4,0.2-0.8,0.5-1.1
	c0.3-0.3,0.7-0.5,1.1-0.5h7.7c0.3,0,0.6-0.2,0.6-0.5c0,0,0-0.1,0-0.1v-2.9c0-5.4,0.8-9.6,2.5-12.5c1.6-3,4.3-5.1,8-6.3
	c3.7-1.3,8.8-1.8,15.3-1.6h4.9c0.9,0,1.6,0.7,1.6,1.5c0,0,0,0,0,0V222c0,0.4-0.2,0.8-0.5,1.1c-0.3,0.3-0.7,0.5-1.1,0.5h-4.3
	c-3,0.1-5.1,0.7-6.3,1.9c-1.2,1.2-1.8,3.3-1.8,6.4v1.4c0,0.3,0.2,0.6,0.5,0.6c0,0,0.1,0,0.1,0h12.6
	C881.5,234,881.9,234.1,882.2,234.4z"/>
  <path class="st2" d="M904.1,296.2c-5.2-3.8-9-9.3-10.7-15.6c-1.2-4.3-1.9-8.8-1.8-13.3c-0.1-4.7,0.5-9.3,1.8-13.8
	c1.8-6.1,5.6-11.4,10.8-15.1c5.2-3.6,11.4-5.5,18.7-5.5c7.1,0,13.2,1.8,18.2,5.4c5,3.6,8.6,8.6,10.7,15c1.4,4.4,2.1,9,2.1,13.6
	c0,4.4-0.6,8.9-1.8,13.1c-1.9,6.8-5.4,12.1-10.6,15.9s-11.4,5.8-18.6,5.8C915.5,301.9,909.3,300,904.1,296.2z M930.1,283.6
	c2.1-1.9,3.6-4.4,4.3-7.1c0.7-3,1.1-6,1-9.1c0.1-3.1-0.3-6.2-1-9.2c-0.8-2.7-2.3-5.1-4.4-6.9c-4.3-3.3-10.3-3.3-14.6,0
	c-2.1,1.8-3.5,4.2-4.2,6.9c-0.7,2.1-1,5.2-1,9.2c0,3.9,0.3,6.9,0.9,9.1c0.7,2.8,2.2,5.3,4.4,7.1c2.1,1.8,4.7,2.7,7.5,2.6
	C925.5,286.2,928.1,285.3,930.1,283.6L930.1,283.6z"/>
  <path class="st2" d="M967.8,300.4c-0.3-0.3-0.5-0.7-0.5-1.1v-87.9c0-0.9,0.7-1.6,1.5-1.6c0,0,0,0,0,0h15.2c0.8,0,1.5,0.7,1.6,1.5
	c0,0,0,0,0,0.1v87.8c0,0.9-0.7,1.6-1.5,1.6c0,0,0,0,0,0h-15.2C968.5,300.9,968.1,300.7,967.8,300.4z"/>
  <path class="st2" d="M1043,210.3c0.3-0.3,0.7-0.5,1.1-0.4h15.2c0.9,0,1.6,0.7,1.6,1.5c0,0,0,0,0,0v87.8c0,0.9-0.7,1.6-1.6,1.6h-15.2
	c-0.9,0-1.6-0.7-1.6-1.6V295c0-0.3-0.1-0.4-0.3-0.5c-0.2,0-0.4,0-0.5,0.2c-3.6,4.8-8.6,7.1-14.9,7.1c-6.1,0-11.3-1.7-15.7-5.1
	c-4.4-3.4-7.5-8-9.4-13.9c-1.6-5.1-2.3-10.4-2.2-15.7c0-6.1,0.8-11.5,2.3-16.1c1.8-5.2,5-9.8,9.4-13.2c4.3-3.2,9.6-4.9,15.9-4.9
	c6.2,0,11.1,2.2,14.6,6.5c0.2,0.3,0.3,0.3,0.5,0.3c0.2-0.1,0.3-0.3,0.3-0.5v-27.8C1042.5,211,1042.7,210.6,1043,210.3z
	 M1042.4,267.4c0-5.8-1-10.3-2.9-13.6c-2-3.4-4.9-5.1-8.7-5.1c-4.1,0-7.1,1.7-9.2,5.1c-2.2,3.4-3.3,8-3.3,13.8c0,5.2,0.9,9.5,2.7,13
	c2.2,3.7,5.4,5.6,9.6,5.6c3.9,0,6.9-1.9,9.1-5.6C1041.5,277.4,1042.4,273,1042.4,267.4z"/>
  <path class="st2" d="M1117.9,296.2c-5.2-3.8-9-9.3-10.7-15.6c-1.2-4.3-1.9-8.8-1.8-13.3c-0.1-4.7,0.5-9.3,1.8-13.8
	c1.8-6.1,5.6-11.4,10.8-15.1c5.2-3.6,11.4-5.5,18.7-5.5c7.1,0,13.2,1.8,18.2,5.4c5,3.6,8.6,8.6,10.7,15c1.4,4.4,2.1,9,2.1,13.6
	c0,4.4-0.6,8.9-1.8,13.1c-1.9,6.8-5.4,12.1-10.6,15.9c-5.2,3.8-11.4,5.8-18.6,5.8C1129.3,301.9,1123.1,300,1117.9,296.2z
	 M1143.9,283.6c2.1-1.9,3.6-4.4,4.3-7.1c0.7-3,1.1-6,1.1-9.1c0.1-3.1-0.3-6.2-1-9.2c-0.8-2.7-2.3-5.1-4.4-6.9
	c-4.3-3.3-10.3-3.3-14.6,0c-2.1,1.8-3.5,4.2-4.2,6.9c-0.7,2.1-1,5.2-1,9.2c0,3.9,0.3,6.9,0.9,9.1c0.7,2.8,2.2,5.3,4.4,7.1
	c2.1,1.8,4.7,2.7,7.5,2.6C1139.2,286.2,1141.8,285.3,1143.9,283.6L1143.9,283.6z"/>
  <path class="st2" d="M1222.1,234.5c0.3-0.3,0.7-0.5,1.1-0.4h15.2c0.9,0,1.6,0.7,1.6,1.5c0,0,0,0,0,0v59.2c0,11.3-3.3,19.4-9.8,24.3
	s-15,7.3-25.3,7.3c-3.4,0-6.8-0.2-10.1-0.6c-0.9-0.1-1.3-0.6-1.3-1.7l0.5-13.4c0-1.1,0.6-1.6,1.8-1.4c2.8,0.5,5.7,0.8,8.6,0.8
	c5.5,0,9.8-1.2,12.8-3.6c3-2.4,4.5-6.3,4.5-11.7c0-0.3-0.1-0.4-0.3-0.5c-0.2,0-0.4,0-0.5,0.2c-3.3,3.6-8.1,5.3-14.4,5.3
	c-5.4,0-10.8-1.4-15.5-4.1c-4.7-2.7-8.1-7.1-10.1-13.2c-1.3-4-2-9.1-1.9-15.5c0-6.8,0.8-12.3,2.3-16.5c1.7-5.1,4.9-9.5,9.2-12.7
	c4.4-3.2,9.7-4.9,15.1-4.8c6.7,0,11.8,2,15.3,6c0.1,0.2,0.3,0.2,0.5,0.2c0.2,0,0.3-0.2,0.3-0.4v-3.1
	C1221.6,235.2,1221.8,234.8,1222.1,234.5z M1221.6,266.9c0-2.1-0.1-4.2-0.3-6.2c-0.2-1.4-0.5-2.8-0.9-4.2c-0.7-2.2-2.1-4.2-3.9-5.7
	c-1.9-1.5-4.3-2.2-6.8-2.1c-2.4-0.1-4.7,0.7-6.6,2.1c-1.8,1.5-3.2,3.4-4,5.7c-1.2,2.6-1.8,6.1-1.8,10.5c0,4.9,0.5,8.3,1.6,10.4
	c0.7,2.3,2.2,4.2,4.1,5.6c2,1.5,4.5,2.2,7,2.1c4.9,0.2,9.3-3,10.7-7.7C1221.3,275,1221.6,271.4,1221.6,266.9L1221.6,266.9z"/>
  <path class="st2" d="M1350.6,210.3c0.3,0.3,0.5,0.7,0.5,1.1v12.7c0,0.9-0.7,1.6-1.6,1.6h-23.3c-0.3,0-0.6,0.2-0.6,0.5
	c0,0,0,0.1,0,0.1v72.9c0,0.9-0.7,1.6-1.6,1.6h-15.2c-0.9,0-1.6-0.7-1.6-1.6v-72.9c0-0.3-0.2-0.6-0.5-0.6c0,0-0.1,0-0.1,0H1284
	c-0.4,0-0.8-0.2-1.1-0.5c-0.3-0.3-0.5-0.7-0.5-1.1v-12.7c0-0.9,0.7-1.6,1.5-1.6c0,0,0,0,0,0h65.5
	C1349.9,209.9,1350.3,210.1,1350.6,210.3z"/>
  <path class="st2" d="M1409.4,271.6c0,0.8-0.6,1.5-1.4,1.6c-0.1,0-0.2,0-0.2,0h-40.2c-0.5,0-0.7,0.2-0.5,0.6c0.3,1.8,0.8,3.5,1.4,5.2
	c2.3,4.8,6.8,7.3,13.8,7.3c5.5-0.1,9.9-2.3,13.1-6.8c0.2-0.4,0.7-0.7,1.2-0.8c0.4,0,0.7,0.2,0.9,0.5l9.4,9.2
	c0.4,0.3,0.6,0.7,0.6,1.2c-0.1,0.4-0.3,0.7-0.5,1c-2.9,3.6-6.7,6.4-11,8.2c-4.7,2-9.7,3-14.8,2.9c-7.4,0-13.7-1.7-18.9-5.1
	c-5.1-3.4-9-8.3-11.1-14.1c-1.8-4.3-2.7-10-2.7-17c-0.1-4.3,0.6-8.5,2-12.6c1.8-5.9,5.5-11,10.5-14.7c5-3.6,10.9-5.5,17.7-5.5
	c8.7,0,15.6,2.5,20.9,7.5c5.2,5,8.4,11.7,9.5,20.1C1409.4,264.2,1409.6,267.9,1409.4,271.6z M1367.8,256.4c-0.4,1.4-0.7,2.8-0.9,4.2
	c0,0.3,0.2,0.6,0.5,0.6c0,0,0.1,0,0.1,0h22.5c0.5,0,0.7-0.2,0.5-0.6c-0.4-2.5-0.6-3.7-0.6-3.6c-0.7-2.4-2.1-4.5-4.1-6
	c-2.1-1.5-4.6-2.2-7.2-2.1C1373.2,248.7,1369.6,251.3,1367.8,256.4L1367.8,256.4z"/>
  <path class="st2" d="M1423,300.4c-0.3-0.3-0.5-0.7-0.4-1.1v-87.9c0-0.4,0.2-0.8,0.4-1.1c0.3-0.3,0.7-0.5,1.1-0.4h15.2
	c0.9,0,1.6,0.7,1.6,1.5c0,0,0,0,0,0v87.8c0,0.9-0.7,1.6-1.6,1.6h-15.2C1423.7,300.9,1423.3,300.7,1423,300.4z"/>
  <path class="st2" d="M1515.6,271.6c0,0.8-0.6,1.5-1.5,1.6c-0.1,0-0.2,0-0.2,0h-40.1c-0.5,0-0.7,0.2-0.5,0.6c0.3,1.8,0.8,3.5,1.4,5.2
	c2.3,4.8,6.8,7.3,13.8,7.3c5.5-0.1,9.9-2.3,13.1-6.8c0.2-0.6,0.9-0.9,1.5-0.7c0.2,0.1,0.4,0.2,0.6,0.5l9.4,9.2
	c0.4,0.3,0.6,0.7,0.6,1.2c-0.1,0.4-0.3,0.7-0.5,1c-2.9,3.6-6.7,6.4-11,8.2c-4.7,2-9.7,3-14.8,2.9c-7.5,0-13.8-1.7-18.9-5.1
	c-5.1-3.4-9-8.3-11.1-14.1c-1.8-4.3-2.7-10-2.7-17c-0.1-4.3,0.6-8.5,1.9-12.6c1.8-5.9,5.5-11,10.5-14.7c5-3.6,10.9-5.5,17.7-5.5
	c8.7,0,15.6,2.5,20.9,7.5c5.2,5,8.4,11.7,9.6,20.1C1515.7,264.2,1515.8,267.9,1515.6,271.6z M1474.1,256.4c-0.4,1.4-0.7,2.8-0.9,4.2
	c0,0.3,0.2,0.6,0.5,0.6c0,0,0.1,0,0.1,0h22.5c0.5,0,0.7-0.2,0.5-0.6c-0.4-2.5-0.6-3.7-0.6-3.6c-0.7-2.4-2.1-4.5-4.1-6
	c-2.1-1.5-4.6-2.2-7.2-2.1C1479.4,248.7,1475.8,251.3,1474.1,256.4L1474.1,256.4z"/>
  <path class="st2" d="M1618.7,239.1c3.8,4.1,5.7,9.8,5.7,17.2v43c0,0.9-0.7,1.6-1.6,1.6h-15.2c-0.9,0-1.6-0.7-1.6-1.6v-39
	c0-3.6-0.9-6.4-2.7-8.4c-1.8-2.1-4.5-3.2-7.3-3.1c-2.8-0.1-5.5,1-7.4,3.1c-1.9,2.1-2.9,4.9-2.9,8.3v39.1c0,0.4-0.2,0.8-0.5,1.1
	c-0.3,0.3-0.7,0.5-1.1,0.5h-15.1c-0.9,0-1.6-0.7-1.6-1.6v-39c0-3.5-1-6.3-2.9-8.4c-1.9-2.1-4.6-3.3-7.4-3.2c-2.6-0.1-5,0.8-7,2.5
	c-1.9,1.6-3,3.9-3.3,6.9v41.2c0,0.9-0.7,1.6-1.6,1.6h-15.2c-0.4,0-0.8-0.2-1.1-0.5c-0.3-0.3-0.5-0.7-0.5-1.1v-63.7
	c0-0.9,0.7-1.6,1.5-1.6c0,0,0,0,0,0h15.2c0.9,0,1.6,0.7,1.6,1.5c0,0,0,0,0,0v5.1c0,0.2,0.1,0.4,0.3,0.5c0.2,0.1,0.3,0,0.5-0.3
	c3.6-5.3,9-7.9,16.5-7.9c4-0.1,7.9,0.8,11.5,2.7c3.2,1.8,5.8,4.5,7.5,7.8c0.3,0.5,0.6,0.5,0.9,0c1.7-3.4,4.4-6.1,7.7-7.9
	c3.4-1.8,7.2-2.7,11-2.6C1609.6,233,1614.9,235.1,1618.7,239.1z"/>
  <path class="st2" d="M1681.8,235.9c4.1,1.7,7.7,4.5,10.3,8c2.4,3.3,3.7,7.2,3.7,11.3v44c0,0.9-0.7,1.6-1.6,1.6H1679
	c-0.9,0-1.6-0.7-1.6-1.6V295c0-0.2-0.1-0.4-0.3-0.5c-0.2-0.1-0.3,0-0.5,0.3c-3.6,4.8-9.5,7.1-17.5,7.1c-6.8,0-12.2-1.6-16.4-4.9
	c-4.2-3.3-6.2-8.2-6.2-14.6c0-6.7,2.3-11.8,7-15.5c4.7-3.7,11.3-5.5,20-5.5h13.3c0.3,0,0.6-0.2,0.6-0.5c0,0,0-0.1,0-0.1v-2.9
	c0-2.9-0.9-5.1-2.6-6.7c-1.7-1.6-4.3-2.4-7.8-2.4c-2.3-0.1-4.6,0.4-6.7,1.4c-1.7,0.8-2.9,2.3-3.4,4c-0.3,1-0.8,1.4-1.7,1.3
	l-15.7-2.1c-1-0.2-1.5-0.6-1.4-1.2c0.4-3.7,1.9-7.1,4.3-9.9c2.8-3.1,6.2-5.5,10.1-6.9c4.5-1.7,9.3-2.5,14.1-2.5
	C1671.9,232.9,1677,233.9,1681.8,235.9z M1673.6,285.3c2.5-1.8,3.9-4.6,3.9-7.7v-4.7c0-0.3-0.2-0.6-0.5-0.6c0,0-0.1,0-0.1,0h-9.4
	c-3.9,0-7,0.7-9.2,2.2c-2.1,1.3-3.4,3.7-3.3,6.2c-0.1,2.1,0.8,4.2,2.5,5.5c1.6,1.3,3.9,2,6.6,2
	C1667.5,288.3,1670.9,287.3,1673.6,285.3L1673.6,285.3z"/>
  <path class="st2" d="M1752.1,235c0.7,0.3,1,1,0.8,2l-2.7,14.8c-0.1,1-0.7,1.3-1.8,0.9c-1.5-0.5-3-0.7-4.6-0.6c-1,0-1.9,0.1-2.9,0.3
	c-3,0.2-5.8,1.4-7.9,3.4c-2.2,2-3.3,4.7-3.3,8.1v35.5c0,0.9-0.7,1.6-1.5,1.6c0,0,0,0,0,0H1713c-0.4,0-0.8-0.2-1.1-0.5
	c-0.3-0.3-0.5-0.7-0.5-1.1v-63.7c0-0.9,0.7-1.6,1.5-1.6c0,0,0,0,0,0h15.2c0.8,0,1.5,0.7,1.6,1.5c0,0,0,0,0,0.1v4.9
	c0,0.2,0.1,0.4,0.3,0.5c0.1,0.1,0.3,0.1,0.4-0.1c0,0,0,0,0-0.1c3.5-5.2,8.3-7.8,14.3-7.8C1747.9,233.1,1750.3,233.8,1752.1,235z"/>
  <path class="st2" d="M1763.7,300.4c-0.3-0.3-0.5-0.7-0.5-1.1v-87.9c0-0.9,0.7-1.6,1.5-1.6c0,0,0,0,0,0h15.2c0.8,0,1.5,0.7,1.6,1.5
	c0,0,0,0,0,0.1v43.8c0,0.3,0.1,0.4,0.3,0.5c0.2,0,0.4,0,0.5-0.2L1800,235c0.5-0.6,1.2-0.9,2-0.9h17.3c0.9,0,1.3,0.3,1.3,0.9
	c0,0.4-0.2,0.7-0.4,1l-16.5,20.9c-0.2,0.3-0.2,0.6-0.1,0.9l19.4,41.2c0.1,0.2,0.2,0.5,0.3,0.8c0,0.7-0.5,1-1.4,1h-16
	c-0.8,0-1.5-0.4-1.8-1.2l-12.9-30.4c-0.1-0.2-0.3-0.3-0.5-0.3c-0.2-0.1-0.4,0-0.5,0.2l-8.3,10.4c-0.1,0.2-0.2,0.5-0.3,0.8v19
	c0,0.9-0.7,1.6-1.5,1.6c0,0,0,0,0,0h-15.2C1764.4,300.8,1764,300.7,1763.7,300.4z"/>
  <path class="st2" d="M586.8,437.9v-56.4h34.1v6.7h-26.3v17.7h24.8v6.7h-24.8v25.3L586.8,437.9z"/>
  <path class="st2" d="M682.4,381.4l-21.4,30.1v26.3h-7.8v-26.3l-21.4-30.1h9l16.4,23.3l16.4-23.3H682.4z"/>
  <path class="st2" d="M695.1,437.9v-56.4h7.8V431h26v6.9H695.1z"/>
  <path class="st2" d="M787.3,437.9h-9.8l-26.4-26.6v26.6h-7.8v-56.4h7.8v25.7l25.3-25.7h9.7l-27.1,27.3L787.3,437.9z"/>
  <path class="st2" d="M800.2,437.9v-56.4h34.9v6.6h-27.2v17.7h25.6v6.7h-25.6v18.7h27.2v6.6L800.2,437.9z"/>
  <path class="st2" d="M857.9,436.7c-3.3-1.1-6.4-2.9-8.9-5.2l2.8-6.1c2.4,2.1,5.2,3.7,8.2,4.8c3,1,6.3,1.5,9.5,1.5
	c4,0,7.1-0.8,9.3-2.4c2.2-1.5,3.4-4,3.3-6.7c0.1-2.3-1.1-4.4-3-5.5c-2-1.2-5.3-2.3-9.7-3.4c-3.6-0.8-7.1-1.9-10.5-3.3
	c-2.5-1.1-4.8-2.8-6.4-5c-1.5-2.1-2.3-4.8-2.3-8c-0.1-3.1,0.8-6.1,2.5-8.7c1.7-2.6,4.2-4.6,7-5.9c3.3-1.5,6.9-2.2,10.6-2.1
	c3.6,0,7.2,0.6,10.6,1.8c3.1,1.1,5.9,2.8,8.2,5.2l-2.7,6.1c-2.3-2-4.8-3.6-7.6-4.8c-2.7-1-5.5-1.6-8.3-1.6c-3.9,0-6.9,0.8-9.1,2.5
	c-2.2,1.6-3.4,4.3-3.3,7c-0.1,2.3,1,4.5,2.9,5.8c1.9,1.3,5,2.5,9.3,3.6c3.7,0.8,7.3,1.9,10.8,3.3c2.6,1,4.8,2.6,6.6,4.7
	c1.6,2,2.5,4.6,2.5,7.8c0.1,3-0.8,6-2.5,8.6c-1.8,2.6-4.2,4.5-7.1,5.7c-3.5,1.4-7.2,2.1-10.9,2C865.4,438.6,861.5,438,857.9,436.7z" />
  <path class="st2" d="M950.1,437.9h-9.8l-26.4-26.6v26.6h-7.8v-56.4h7.8v25.7l25.3-25.7h9.7l-27.1,27.3L950.1,437.9z"/>
  <path class="st2" d="M967.9,435c-3.8-2.4-6.8-5.9-8.6-10c-2-4.3-3-9.4-3-15.3s1-11,3-15.4c1.8-4.1,4.8-7.6,8.6-10
	c3.8-2.3,8.2-3.5,13.2-3.5c5.1,0,9.5,1.2,13.3,3.5c3.8,2.4,6.8,5.9,8.6,10c2,4.4,3,9.5,3,15.3s-1,11-3,15.3c-1.8,4.1-4.8,7.6-8.6,10
	c-3.8,2.4-8.2,3.5-13.3,3.5C975.9,438.5,971.5,437.3,967.9,435z M993.6,426c3-3.8,4.5-9.3,4.5-16.4c0-7.1-1.5-12.6-4.4-16.4
	c-3-3.8-7.2-5.7-12.6-5.7c-5.3,0-9.5,1.9-12.4,5.7c-3,3.8-4.4,9.3-4.4,16.4c0,7.1,1.5,12.6,4.4,16.4c3,3.8,7.1,5.8,12.4,5.8
	C986.4,431.8,990.6,429.8,993.6,426z"/>
  <path class="st2" d="M1068.1,381.4h6.2v56.4h-7.1l0.1-40.8l-16,31.8h-5.3l-16-31.4l0.1,40.4h-7.1v-56.4h6.3l19.5,39.1L1068.1,381.4z
	"/>
  <path class="st2" d="M1138.7,381.4h6.2v56.4h-7.1l0.1-40.8l-16,31.8h-5.3l-16-31.4l0.1,40.4h-7.1v-56.4h6.3l19.5,39.1L1138.7,381.4z
	"/>
  <path class="st2" d="M1169.4,432.7c-3.7-3.9-5.6-9.6-5.6-17.2v-34h7.8V416c0,5.2,1.2,9.1,3.5,11.8c2.4,2.7,5.9,4,10.5,4
	c4.6,0,8.1-1.3,10.5-4c2.4-2.7,3.6-6.6,3.6-11.8v-34.6h7.7v34c0,7.5-1.9,13.3-5.6,17.2c-3.7,3.9-9.1,5.9-16.2,5.9
	C1178.5,438.5,1173.1,436.5,1169.4,432.7z"/>
  <path class="st2" d="M1263.1,381.4h7.4v56.4h-6l-30.7-42.6v42.6h-7.4v-56.4h5.9l30.7,42.7V381.4z"/>
  <path class="st2" d="M1289.7,437.9v-56.4h34.9v6.6h-27.2v17.7h25.6v6.7h-25.6v18.7h27.2v6.6L1289.7,437.9z"/>
</svg>
