<?xml version="1.0" encoding="utf-8"?>
<!-- Generator: Adobe Illustrator 24.2.0, SVG Export Plug-In . SVG Version: 6.00 Build 0)  -->
<svg version="1.2" baseProfile="tiny-ps" id="Layer_1" xmlns="http://www.w3.org/2000/svg" xmlns:xlink="http://www.w3.org/1999/xlink" viewBox="0 0 180 180" overflow="visible" xml:space="preserve">
	<title>Vestfold og Telemark fylkeskommune</title>
	<g>
		<path fill="#E40017" d="M28.61,19.92v77.81c0,2.05,0.1,5.23,0.3,7.23c3.06,30.94,29.25,55.11,61.09,55.11s58.03-24.17,61.09-55.11
		c0.2-2,0.3-5.18,0.3-7.23V19.92H28.61z" />
		<path fill="#FFCD00" d="M91.64,121.68c-0.01-0.03,0.01-0.06,0.05-0.07c0.03-0.01,0.06,0.01,0.07,0.04
		c1.94,6.09,5.53,11.71,10,16.58c1.84-0.75,3.82-1.45,5.82-2.21c-7.59-6.64-14.06-15.44-15.94-25.65c-0.01-0.03,0.01-0.06,0.05-0.07
		c0.03-0.01,0.06,0.01,0.07,0.04c3.1,9.75,10.43,18.26,18.82,24.49c2.31-0.98,4.58-2.12,6.68-3.58
		c-11.18-6.68-22.96-18.28-25.61-32.68c-0.01-0.03,0.01-0.06,0.05-0.07c0.03-0.01,0.06,0.01,0.07,0.04
		c4.24,13.33,16.37,24.35,28.34,30.37c1.83-1.77,3.32-3.86,4.39-6.16c-12.76-5.36-29.61-18.78-32.86-36.37
		c-0.01-0.03,0.01-0.06,0.05-0.07c0.03-0.01,0.06,0.01,0.07,0.04c4.93,15.47,20.46,27.82,34.06,32.87c0.82-2.81,1.28-6.1,1.28-10.01
		c-16.41-5.02-35.46-24.31-35.46-43.76l0,0V53.32h-3.27v12.13C88.36,84.5,67.99,104.58,52.9,109.2c0,3.91,0.46,7.2,1.28,10.01
		c13.6-5.05,29.14-17.4,34.06-32.87c0.01-0.03,0.04-0.05,0.07-0.04c0.03,0.01,0.05,0.04,0.05,0.07
		c-3.24,17.59-20.1,31.01-32.86,36.37c1.07,2.31,2.56,4.4,4.39,6.16c11.97-6.02,24.1-17.04,28.34-30.37
		c0.01-0.03,0.04-0.05,0.07-0.04c0.03,0.01,0.05,0.04,0.05,0.07c-2.65,14.4-14.43,26-25.61,32.68c2.09,1.47,4.37,2.61,6.68,3.58
		c8.39-6.23,15.71-14.74,18.82-24.49c0.01-0.03,0.04-0.05,0.07-0.04c0.03,0.01,0.05,0.04,0.05,0.07
		c-1.88,10.21-8.35,19.01-15.94,25.65c2.01,0.76,3.98,1.46,5.82,2.21c4.47-4.87,8.06-10.48,10-16.58c0.01-0.03,0.04-0.05,0.07-0.04
		c0.03,0.01,0.05,0.04,0.05,0.07c-1.18,6.42-4.18,12.29-8.13,17.4c4.71,2.19,8.13,5.07,8.13,10.98v0.01h3.27l0,0
		c0-5.91,3.42-8.79,8.13-10.98C95.82,133.97,92.82,128.1,91.64,121.68z" />

		<ellipse transform="matrix(0.0175 -0.9998 0.9998 0.0175 69.4252 184.2129)" fill="#FFCD00" cx="128.44" cy="56.78"
			rx="3.57" ry="3.63" />
		<path fill="#FFCD00" d="M139.93,75.47c-5.62,13.46-29.96,13.77-34.26-1.83c2.22,3.81,6.39,6.85,12.68,6.96
		c12.47,0.22,22.76-9.99,22.99-22.8c0.01-0.61,0-1.21-0.04-1.81c-0.02-0.54-0.08-1.07-0.15-1.61c-0.2-1.59-0.57-3.16-1.09-4.68
		c-1.37-4.57-3.28-9.21-2.61-14.2c1.47,0.57,3.12-0.15,3.69-1.62c0.57-1.47-0.15-3.12-1.62-3.69c-0.32-0.12-0.65-0.19-0.99-0.19
		c-1.49-0.03-2.79,0.78-3.66,2.58c-1.25,2.6-0.37,6.46,0.62,9.28c-4.05-4.6-7.87-7.64-16.34-7.64c-6.97,0-20.04,2.1-22.83-5.26
		c-0.8,1.32-1.24,2.82-1.28,4.37c-0.18,6.21,7.03,7.09,7.4,7.01c-8.36,8.05,1.68,19.13,9.82,12.65c0.71-0.57,1.57-1.52,1.81-2.39
		c-2.86,1.02-6.01-0.48-7.03-3.34c-0.21-0.59-0.32-1.22-0.32-1.84c0-0.31,0.03-0.63,0.08-0.94c0.95-4.55,5.69-7.76,13.77-7.7
		c-9.02,1.84-8.2,10.11-6.12,10.64c0,0-0.05-0.46-0.05-0.7c0.06-3.49,3.8-6.83,9.21-6.83c6.46,0,10.52,4.99,11.99,7.68
		c-4.27-3.23-10.34-2.38-13.57,1.89c-1.24,1.64-1.92,3.62-1.96,5.67c-0.03,1.93,0.91,5.37,4.36,5.81
		c-3.99-5.37-0.33-10.22,4.06-10.29c4.61-0.07,8.07,3.88,8.07,8.49c0,7.38-7.6,12.5-15.54,12.5c-3.33,0-6.77-1.03-8.96-2.88
		c2.26-0.67,3.82-2.72,3.86-5.08c0.05-2.98-2.32-5.48-5.3-5.48c-6.61,0-8.16,6.97-8.16,10.39c0,25.48,35.06,28.55,32.94,39.37
		c1.64-0.95,2.09-3.24,1.97-4.86c-0.42-5.53-10.26-10.9-12.37-12.33C127.64,91.69,143.38,87.67,139.93,75.47z" />
		<path fill="#FFCD00" d="M41.15,30.02c4.65-0.4,6.17,6.96-0.27,12.23c-0.65,0.53-1.28,0.59-1.39,0.58c0.99-0.74,3.04-4.62,2.56-7.35
		c-1.87,0.26-3.01-0.72-3.35-2.09C38.29,31.75,39.53,30.15,41.15,30.02z" />
		<path fill="#FFCD00" d="M84.97,33.33c-0.03-1.54-0.47-3.05-1.28-4.37c-2.79,7.36-15.86,5.26-22.83,5.26
		c-13.15,0-22.4,10.78-22.18,23.59c0.22,12.81,10.51,23.02,22.99,22.8c6-0.1,10.08-2.88,12.37-6.45l0,0
		c-3.89,14.3-27.59,15.03-33.63,1.32c-2.46,2.24-1.55,6.56,0.82,7.67c-1.25,5.55,7.88,9.02,12.78,7.25
		c-3.46,1.73-14.97,10.74-9.42,17.56c-2.15-10.99,33-13.91,33-38.84c0-2.36-0.77-10.92-8.21-10.92c-2.98,0-5.35,2.51-5.3,5.48
		c0.04,2.36,1.6,4.41,3.86,5.08c-2.19,1.94-5.63,2.88-8.96,2.88c-5.69,0-16.06-3.1-16.06-13.3c0-4.42,3.44-8.07,7.86-8.14
		c2.34-0.04,4.58,0.94,6.13,2.7c-1.78-1.27-4.26-0.86-5.53,0.92c-1.27,1.78-0.86,4.26,0.92,5.53c0.69,0.49,1.52,0.75,2.37,0.74
		c3.59-0.06,3.99-3.92,4.04-3.72c0.93-5.05-2.41-9.91-7.47-10.84c-0.61-0.11-1.23-0.16-1.84-0.15c-1.54,0.02-3.04,0.43-4.38,1.18
		c4-6.16,9.26-6.61,11.37-6.65c5.41-0.09,9.15,3.35,9.21,6.83c0.01,0.31-0.02,0.62-0.09,0.93c2.48-1.42,2.16-9.33-6.06-10.82
		c7.3-0.18,12.77,2.97,13.75,7.64c0.05,0.31,0.08,0.62,0.08,0.94c0,3.04-2.47,5.5-5.5,5.5c-0.63,0-1.25-0.11-1.84-0.32
		c0.24,0.87,1.1,1.82,1.81,2.39c8.14,6.48,18.18-4.6,9.82-12.65C77.94,40.42,85.15,39.54,84.97,33.33z" />
	</g>
</svg>